<svg width="31" height="31" viewBox="0 0 31 31" fill="none" xmlns="http://www.w3.org/2000/svg">
<path fill-rule="evenodd" clip-rule="evenodd" d="M20.7982 1.94085C22.0694 3.07075 22.9466 4.65934 23.1849 6.64094C23.2059 6.81593 23.3399 6.9597 23.5131 6.99202C29.4956 8.10817 31 11.2358 31 18.7292C31 28.8342 28.2642 31 15.5 31C2.73575 31 0 28.8342 0 18.7292C0 11.2358 1.50436 8.10817 7.48687 6.99202C7.66013 6.9597 7.79407 6.81593 7.81511 6.64094C8.05335 4.65934 8.93061 3.07075 10.2018 1.94085C11.6782 0.628479 13.6102 0 15.5 0C17.3898 0 19.3218 0.628479 20.7982 1.94085ZM15.5 6.45833C13.8044 6.45833 12.2857 6.49655 10.9269 6.58653C10.6742 6.60327 10.4705 6.37866 10.537 6.13421C10.8011 5.1629 11.3017 4.41947 11.918 3.87165C12.8635 3.03124 14.1606 2.58333 15.5 2.58333C16.8394 2.58333 18.1365 3.03124 19.082 3.87165C19.6983 4.41947 20.1989 5.1629 20.463 6.13421C20.5295 6.37867 20.3258 6.60327 20.0731 6.58653C18.7143 6.49655 17.1956 6.45833 15.5 6.45833ZM15.5 14.2083C16.2134 14.2083 16.7917 14.7866 16.7917 15.5V17.6958C16.7917 17.9098 16.9652 18.0833 17.1792 18.0833H19.375C20.0884 18.0833 20.6667 18.6616 20.6667 19.375C20.6667 20.0884 20.0884 20.6667 19.375 20.6667H17.1792C16.9652 20.6667 16.7917 20.8402 16.7917 21.0542V23.25C16.7917 23.9634 16.2134 24.5417 15.5 24.5417C14.7866 24.5417 14.2083 23.9634 14.2083 23.25V21.0542C14.2083 20.8402 14.0348 20.6667 13.8208 20.6667H11.625C10.9116 20.6667 10.3333 20.0884 10.3333 19.375C10.3333 18.6616 10.9116 18.0833 11.625 18.0833H13.8208C14.0348 18.0833 14.2083 17.9098 14.2083 17.6958V15.5C14.2083 14.7866 14.7866 14.2083 15.5 14.2083Z" fill="#3A9EDD"/>
</svg>
